<?xml version="1.0" standalone="no"?><!DOCTYPE svg PUBLIC "-//W3C//DTD SVG 1.1//EN" "http://www.w3.org/Graphics/SVG/1.1/DTD/svg11.dtd"><svg t="1742984142991" class="icon" viewBox="0 0 1024 1024" version="1.1" xmlns="http://www.w3.org/2000/svg" p-id="1073" xmlns:xlink="http://www.w3.org/1999/xlink" width="200" height="200"><path d="M523.92 433.8c-7.16 0-14.41-0.32-21.55-0.96l-46.51-4.14c-42.1-3.75-81.15-20.46-112.93-48.32s-53.46-64.39-62.68-105.64l-3.28-14.66c-1.74-7.77 0.08-15.74 4.99-21.87 4.96-6.19 12.6-9.89 20.44-9.89 5.09 0 10.07 1.53 14.42 4.44l54.44 36.37c1.02 0.68 2.13 1.03 3.31 1.03 2.32 0 5.02-1.38 5.85-4.47l34.88-129.82c3.1-11.53 13.21-19.27 25.17-19.27 10.91 0 20.45 6.61 24.31 16.84l45.82 121.43c1.36 3.62 4.69 3.9 5.67 3.9 1.28 0 3.65-0.39 5.16-2.99l68.15-116.73c4.73-8.1 13.06-12.93 22.28-12.93 7.14 0 14.07 2.89 18.99 7.94 4.83 4.94 7.39 11.6 7.22 18.73l-3.42 143.57c-0.05 2.11 0.88 3.51 1.67 4.32 1.16 1.19 2.75 1.87 4.36 1.87 0.93 0 1.86-0.23 2.75-0.69l58.35-29.99c3.81-1.96 7.84-2.95 11.98-2.95 9.07 0 17.65 4.96 22.39 12.93 4.68 7.89 4.83 17.46 0.38 25.62-42.46 77.92-123.93 126.32-212.63 126.32z" fill="#92BC71" p-id="1074"></path><path d="M440.48 126.6c6.16 0 12.33 3.4 14.96 10.37l45.82 121.43c2.57 6.81 8.79 10.37 15.03 10.37 5.32 0 10.67-2.58 13.8-7.95l68.15-116.73c3.22-5.51 8.45-7.98 13.64-7.98 8.28 0 16.46 6.26 16.22 16.44l-3.42 143.57c-0.23 9.46 7.5 16.43 16.03 16.43 2.43 0 4.92-0.56 7.32-1.79l58.35-29.99c2.48-1.28 5-1.85 7.41-1.85 11.2 0 20.2 12.37 13.99 23.77-40.92 75.08-119.43 121.11-203.85 121.11-6.86 0-13.74-0.3-20.66-0.92l-46.51-4.14c-81.47-7.25-148.89-66.36-166.74-146.18l-3.28-14.66c-2.41-10.77 6.15-19.57 15.68-19.57 2.96 0 6.01 0.85 8.86 2.75l54.44 36.37a15.9 15.9 0 0 0 8.87 2.71c6.91 0 13.53-4.5 15.51-11.88l34.88-129.82c2.1-7.84 8.8-11.87 15.51-11.87m-0.01-19.99c-16.54 0-30.54 10.72-34.83 26.68l-33.44 124.47-49.83-33.29c-5.99-4.01-12.9-6.12-19.97-6.12-10.85 0-21.41 5.1-28.25 13.64-6.82 8.51-9.35 19.56-6.94 30.3l3.28 14.66c4.86 21.71 13.1 42.37 24.49 61.4a207.588 207.588 0 0 0 41.36 49.57 207.76 207.76 0 0 0 54.56 34.52c20.36 8.8 41.91 14.27 64.08 16.24l46.51 4.14c7.44 0.66 14.99 1 22.44 1 92.36 0 177.19-50.4 221.41-131.54 6.15-11.29 5.94-24.56-0.56-35.51-6.53-11-18.4-17.83-30.99-17.83-5.74 0-11.31 1.37-16.55 4.06l-52.4 26.93 3.26-136.88c0.23-9.85-3.34-19.07-10.06-25.96-6.8-6.96-16.33-10.95-26.15-10.95-12.82 0-24.37 6.69-30.91 17.89l-63.94 109.52-42.87-113.63c-5.34-14.16-18.56-23.31-33.67-23.31z" fill="#79995C" p-id="1075"></path><path d="M247.63 336.47m236.5 0l47.85 0q236.5 0 236.5 236.5l0 93q0 236.5-236.5 236.5l-47.85 0q-236.5 0-236.5-236.5l0-93q0-236.5 236.5-236.5Z" fill="#FFD766" p-id="1076"></path><path d="M531.98 912.47h-47.85c-65.84 0-127.74-25.64-174.3-72.2-46.56-46.56-72.2-108.46-72.2-174.3v-93c0-65.84 25.64-127.74 72.2-174.3 46.56-46.56 108.46-72.2 174.3-72.2h47.85c65.84 0 127.74 25.64 174.3 72.2 46.56 46.56 72.2 108.46 72.2 174.3v93c0 65.84-25.64 127.74-72.2 174.3-46.56 46.56-108.46 72.2-174.3 72.2z m-47.85-566c-60.5 0-117.38 23.56-160.16 66.34s-66.34 99.66-66.34 160.16v93c0 60.5 23.56 117.38 66.34 160.16s99.66 66.34 160.16 66.34h47.85c60.5 0 117.38-23.56 160.16-66.34s66.34-99.66 66.34-160.16v-93c0-60.5-23.56-117.38-66.34-160.16s-99.66-66.34-160.16-66.34h-47.85z" fill="#F7B24D" p-id="1077"></path><path d="M363.55 687.24c-2.56 0-5.12-0.98-7.07-2.93-3.91-3.91-3.91-10.24 0-14.14l106.49-106.49c3.91-3.91 10.24-3.91 14.14 0s3.91 10.24 0 14.14L370.62 684.31a9.973 9.973 0 0 1-7.07 2.93zM562.15 488.64c-2.56 0-5.12-0.98-7.07-2.93-3.91-3.91-3.91-10.24 0-14.14l20.46-20.46c3.91-3.91 10.24-3.91 14.14 0 3.91 3.91 3.91 10.24 0 14.14l-20.46 20.46a9.973 9.973 0 0 1-7.07 2.93zM456.74 782.72c-2.56 0-5.12-0.98-7.07-2.93-3.91-3.91-3.91-10.24 0-14.14l21.7-21.7c3.91-3.91 10.24-3.91 14.14 0 3.91 3.91 3.91 10.24 0 14.14l-21.7 21.7a9.973 9.973 0 0 1-7.07 2.93zM572.38 667.08c-2.56 0-5.12-0.98-7.07-2.93-3.91-3.91-3.91-10.24 0-14.14l104.56-104.56c3.91-3.91 10.24-3.91 14.14 0s3.91 10.24 0 14.14L579.45 664.15a9.973 9.973 0 0 1-7.07 2.93z" fill="#FFFFFF" p-id="1078"></path><path d="M676.94 690.85c-2.56 0-5.12-0.98-7.07-2.93L447.21 465.26c-3.91-3.91-3.91-10.24 0-14.14 3.91-3.91 10.24-3.91 14.14 0l222.66 222.66c3.91 3.91 3.91 10.24 0 14.14a9.973 9.973 0 0 1-7.07 2.93zM580.14 782.72c-2.56 0-5.12-0.98-7.07-2.93l-220.2-220.2c-3.91-3.91-3.91-10.24 0-14.14s10.24-3.91 14.14 0l220.2 220.2c3.91 3.91 3.91 10.24 0 14.14a9.973 9.973 0 0 1-7.07 2.93z" fill="#FFFFFF" p-id="1079"></path></svg>